<?xml version="1.0" encoding="utf-8"?>
<!-- Generator: Adobe Illustrator 24.0.1, SVG Export Plug-In . SVG Version: 6.00 Build 0)  -->
<svg version="1.1" id="Layer_2" xmlns="http://www.w3.org/2000/svg" xmlns:xlink="http://www.w3.org/1999/xlink" x="0px" y="0px"
	 viewBox="0 0 400 400" style="enable-background:new 0 0 400 400;" xml:space="preserve">
<style type="text/css">
	.st0{fill:#FDB927;}
	.st1{fill:#1D428A;}
</style>
<g>
	<polygon class="st0" points="205.1,43.2 194.7,29.4 190.5,29.4 189.3,29.4 187.6,29.4 187.6,30.7 189.3,31.9 189.3,52.2 
		194.7,52.2 194.7,38.4 205.1,52.2 210.5,52.2 210.5,29.4 205.1,29.4 	"/>
	<polygon class="st0" points="167,55.6 182.6,52.8 181.8,48.2 171.8,49.9 171.1,45.6 179.2,44.1 178.9,42.1 178.4,39.5 170.3,40.9 
		169.5,36.8 178.6,35.2 179,30.3 164.3,32.9 163.1,33.1 161.5,33.4 161.7,34.8 163.5,35.6 	"/>
	<path class="st0" d="M141.1,64.1l8-2.9c7.4-2.7,10.3-8.8,8-15c-2.3-6.3-8.4-9.1-15.8-6.4l-7.1,2.6l-0.9,0.3l-1.8,0.7l0.5,1.3
		l2.3,0.6L141.1,64.1z M140.3,45.1l2.9-1c2.9-1.1,6.9-0.6,8.6,4c1.7,4.6-1.1,7.5-4,8.6l-2.9,1L140.3,45.1z"/>
	<polygon class="st0" points="120.6,75.4 134.7,67.2 133.3,62.3 123,68.2 114.1,52.8 110.4,54.9 109.2,55.6 107.9,56.4 108.6,57.5 
		110.3,57.7 	"/>
	<path class="st0" d="M106.7,70.3c-4.3-4.9-11.4-5.7-17-0.9c-5.6,4.9-5.8,12.1-1.5,17c4.3,4.9,11.4,5.8,17.1,0.9
		C110.8,82.4,111,75.2,106.7,70.3 M92.5,82.5c-2.6-3-2.6-6.8,0.4-9.4c2.9-2.6,6.7-2.1,9.4,1c2.6,3,2.6,6.9-0.3,9.4
		C98.9,86.1,95.1,85.5,92.5,82.5"/>
	<path class="st0" d="M83.6,89.5l-4.5,5.8l-1.2,1.5L76,99.3l3.6,2.8l3.6-4.6c1,2.1,0.9,4.5-0.8,6.6c0,0,0,0,0,0
		c-2.4,3.1-6.3,3.3-9.4,0.8c-3.2-2.5-3.9-6.2-1.4-9.3c0.4-0.5,0.8-0.9,1.3-1.3c0.7-0.5,1.4-0.9,2.1-1.1l1.9-2.4l2.4-3l0.1-0.1
		c-0.1,0-0.2,0-0.4-0.1c-3.8-0.6-7.7,0.8-10.7,4.2c-0.2,0.2-0.4,0.4-0.5,0.6c-4.6,5.9-3.4,13,1.7,17c5.1,4,12.3,3.5,16.9-2.4
		c0.2-0.2,0.3-0.4,0.5-0.6c3-4.2,3-9,0.9-12.8c-0.2-0.4-0.4-0.7-0.7-1.1c-0.7-0.9-1.5-1.8-2.4-2.5C84.2,90,83.9,89.7,83.6,89.5
		C83.6,89.5,83.6,89.5,83.6,89.5"/>
	<path class="st0" d="M238,46.6l2,1.8c1.7,1.6,2.5,2.3,2.2,3.5c-0.3,0.9-1.4,1.5-3.1,1c-2.1-0.6-4.1-2.3-5.6-4.6l-1.7,5.8
		c1.4,1.3,3.1,2.5,6.5,3.5c4.3,1.2,8.6-0.3,9.8-4.6c1-3.3-0.8-5.6-3.3-7.9l-2.3-2.2c-1.1-1-1.3-1.7-1.1-2.4c0.3-0.9,1.4-1.3,2.8-0.9
		c1.5,0.4,3.5,1.6,5.4,3.9l1.5-5.2c-0.8-0.8-2.8-2.3-5.9-3.2c-4.7-1.4-8.5,0.7-9.6,4.4C234.9,42,235.6,44.4,238,46.6"/>
	<polygon class="st0" points="256.9,64.4 262.2,66.9 269.8,50.5 276.3,53.5 278.3,49.2 260,40.7 258,45 264.6,48 	"/>
	<path class="st0" d="M271.6,68.6l-1.4,2l3.9,2.7l1.6-1.9l2.5-1.3l3.5,2.4l3.5,2.4l-0.2,2.8l-1.1,2.2l3.9,2.7l1.4-2l5.2-21l-2.7-1.8
		l-2.1-1.4l-0.6-0.4l-1.8-1.2l-0.7,1.1l0.6,1.5L271.6,68.6z M288.6,62.5l-2.1,7.8l-2.2-1.5l-2.2-1.5L288.6,62.5z"/>
	<polygon class="st0" points="301.6,70.6 306.9,75.5 294.5,88.7 298.8,92.6 311.1,79.4 316.3,84.3 319.5,80.9 304.8,67.1 	"/>
	<polygon class="st0" points="318.2,100.4 323.3,106.9 327,104 321.9,97.5 325.2,94.9 330.9,102.2 335.3,100.3 326,88.4 326.1,88.3 
		324.3,86 323.2,86.9 323.3,89.1 307.4,101.5 317.2,114 320.9,111.1 314.6,103.1 	"/>
	<path class="st1" d="M335.8,195.3c0,75.5-61.2,136.7-136.7,136.7S62.3,270.8,62.3,195.3S123.6,58.6,199.1,58.6
		S335.8,119.8,335.8,195.3"/>
	<path class="st0" d="M288.5,105.9c-23.9-23.9-55.7-37-89.4-37s-65.5,13.2-89.4,37c-23.9,23.9-37,55.7-37,89.4s13.2,65.5,37,89.4
		c23.9,23.9,55.7,37,89.4,37s65.5-13.2,89.4-37c23.9-23.9,37-55.7,37-89.4S312.4,129.8,288.5,105.9 M114.5,110.7
		c22.6-22.6,52.6-35,84.6-35c32,0,62,12.4,84.6,35c22.6,22.6,35,52.6,35,84.6c0,17.2-3.6,33.8-10.5,49
		c-14.5-4.9-28.8-10.4-42.8-16.6c-1.8-0.8-3.7-1.6-5.5-2.5l-5.5-2.6l-2.7-1.3l-2.7-1.3l-5.4-2.7c-1.8-0.9-3.6-1.9-5.3-2.8l-2.7-1.4
		c-0.9-0.5-1.8-1-2.6-1.5l-5.3-2.9l-5.2-3c-13.9-8.1-27.2-17.2-39.9-27.2c-6.3-5-12.4-10.2-18.2-15.8c-2.9-2.8-5.7-5.6-8.5-8.5
		c-0.7-0.7-1.4-1.5-2-2.2c-0.7-0.7-1.3-1.5-2-2.2c-0.7-0.8-1.3-1.5-1.9-2.3c0,0-0.1-0.1-0.1-0.1c-0.2-8.8-0.4-14-0.4-14l-6-1.4l0,8
		h-5.1l0-8.4l-6.4,1.5l0,3.1l-3,1.6c0.1,2.5,0.1,5.8,0.2,9.7c-2.4,4.2-28.9,50-48.8,64.1c-0.7-5.4-1.1-10.8-1.1-16.3
		C79.4,163.4,91.9,133.3,114.5,110.7 M271.6,254l-12.3,0.4l-10-26l2,1l5.5,2.7c1.8,0.9,3.7,1.8,5.5,2.6c0.5,0.2,1.1,0.5,1.6,0.7
		L271.6,254z M268.6,237.7c5,2.3,10,4.4,15,6.5l4.1,9.2l-12.4,0.4L268.6,237.7z M255.5,254.5l-12.6,0.4l-13.1-37.2
		c0.8,0.5,1.7,1,2.5,1.4l2.7,1.5c1.8,1,3.6,2,5.4,3l4.2,2.2L255.5,254.5z M239.2,255.1l-11.3,0.4l-16.4-48.9c2.5,1.6,5,3.2,7.6,4.8
		l5.2,3.2l0.7,0.4L239.2,255.1z M224.2,255.6l-11.8,0.4L193,193.6c4.5,3.4,9.1,6.6,13.7,9.7L224.2,255.6z M208.8,256.1l-11.4,0.4
		l-23.1-77.9c1.6,1.4,3.3,2.8,4.9,4.2c2.9,2.4,5.9,4.8,8.9,7.1L208.8,256.1z M193.7,256.6l-12.5,0.4l-27.6-98.5
		c2.4,2.7,4.9,5.3,7.4,7.8c2.7,2.7,5.4,5.3,8.2,7.8L193.7,256.6z M177.5,257.1l-10.9,0.4l-15.2-57.9c-0.5-14.9-0.9-28.7-1.2-39.8
		L177.5,257.1z M163,257.6l-9.4,0.3c-0.6-13.8-1.1-28.2-1.6-42.2L163,257.6z M295.7,265.9c-0.8,1.1-1.6,2.2-2.5,3.3l-139.1-2.7
		l-0.1-1.3L295.7,265.9z M291.6,253.3l-3.2-7.1c5.3,2.1,10.6,4.2,15.9,6.1c-0.1,0.2-0.2,0.4-0.3,0.6L291.6,253.3z M143.6,165.8
		l0,7.4H138v6.8h5.6l0,7.4H138v6.8h5.6l0,13.8H138v6.8h5.6l0,14.2H138v6.8h5.6l0,22.4l-5.1,0.2l0-104.1h5.1l0,4.6H138v6.8H143.6z
		 M89.9,244.4l15.6-52.5c6.3-8.4,13.3-18.9,20.6-32.1l-27.9,99.8C95,254.7,92.3,249.7,89.9,244.4 M87.7,239.3
		c-2.8-7-4.8-14.2-6.2-21.7c4.4-3.5,10.6-9.2,18.1-18.2L87.7,239.3z M129.4,161.1c0,10.6-0.2,23.3-0.4,36.9l-16.1,61.3l-11.1,0.4
		L129.4,161.1z M128.6,213.4c-0.4,15.2-1,30.9-1.7,45.4l-10.3,0.3L128.6,213.4z M107.3,272.1l18.8,0.7c-0.4,5.8-0.8,11.3-1.2,16.4
		c-3.6-2.9-7.1-5.9-10.4-9.2C111.9,277.4,109.6,274.8,107.3,272.1 M199.1,315c-14.9,0-29.4-2.7-42.9-7.9c-0.6-8.2-1.1-18-1.6-28.7
		l-10.9-3.7l0,26.7c-1.7-0.9-3.5-1.9-5.2-2.9l0-25.4l5.1,0.2v0.2l5.6,0l10.1,0.4l125.9,4.5c-0.5,0.5-1,1-1.5,1.6
		C261.1,302.5,231,315,199.1,315"/>
	<polygon class="st0" points="239.8,341 238.4,334 230.8,335.4 222.2,337.1 214.6,338.6 216,345.6 223.5,344.2 227.4,364 
		219.8,365.5 221.2,372.5 228.8,371 237.4,369.4 245,367.9 243.6,360.9 236.1,362.3 232.2,342.5 	"/>
	<path class="st0" d="M283.7,332.6c4.2,9,0.9,19.4-9.3,24.2c-10.2,4.8-20.3,0.5-24.5-8.4c-4.2-9-0.9-19.3,9.3-24.1
		C269.4,319.5,279.5,323.7,283.7,332.6 M275.6,336.4c-2.6-5.5-7.9-7.8-13.3-5.3c-5.4,2.5-7,8.1-4.5,13.6c2.5,5.5,7.8,7.9,13.3,5.4
		C276.6,347.5,278.2,341.8,275.6,336.4"/>
	<path class="st0" d="M308.7,304.3c-4.3-5-11.1-4.6-16.2-0.3l-9.6,8.2l-1.5,1.3l-1.8,1.5l1.3,1.5l2.9-0.3l20,23.5l6.6-5.7l-8.2-9.6
		l1.9-1.6l14.8,3.9l8-6.8l-17.1-4C311.8,312.1,311.5,307.6,308.7,304.3 M300.9,316.5l-3.1,2.6l-5.1-5.9l3.2-2.8
		c1.8-1.6,4.2-1.9,5.9,0.1C303.6,312.5,302.9,314.8,300.9,316.5"/>
	<path class="st0" d="M341,303c-3.2,4.3-5.9,6-8.5,7.3l-7.3-5.5c4-0.9,7.5-2.9,9.5-5.5c1.6-2.1,1.5-4.1,0.3-5
		c-1.5-1.1-3-0.4-6.2,1.1l-3.7,1.8c-4.5,2.2-8.3,2-11.5-0.5c-4.6-3.5-5.4-10-1-15.9c2.9-3.8,6.2-5.9,7.7-6.6l6.6,5
		c-4.3,1.5-6.9,3.6-8.4,5.6c-1.3,1.7-1.4,3.6-0.2,4.4c0.9,0.7,2,0.7,4.1-0.2l4.3-2.1c4.6-2.2,8.8-3.5,13-0.3
		C345.3,290.6,345.2,297.5,341,303"/>
	<path class="st0" d="M206.3,349.7c0.2-6.6-5-10.9-11.7-11.1l-12.6-0.4L180,338l-2.4-0.1l-0.1,2l2.3,1.8l-1.1,30.8l8.7,0.3l0.4-12.6
		l2.5,0.1l8.2,12.9l10.5,0.4l-9.9-14.5C203.3,357.6,206.1,354,206.3,349.7 M192.3,353.4l-4.1-0.1l0.3-7.8l4.3,0.1
		c2.4,0.1,4.4,1.4,4.3,4C197,352.3,194.9,353.5,192.3,353.4"/>
	<path class="st0" d="M167.4,346.6c1.9-6.3-2.1-11.8-8.6-13.7l-12.1-3.6l-1.9-0.5l-2.3-0.7l-0.6,1.9l1.8,2.3l-8.8,29.6l8.4,2.5
		l3.6-12.1l2.4,0.7l4.7,14.5l10.1,3l-6-16.5C162.6,353.5,166.2,350.8,167.4,346.6 M153,346.7l-3.9-1.2l2.2-7.5l4.1,1.2
		c2.3,0.7,3.9,2.4,3.1,4.9C157.8,346.8,155.5,347.5,153,346.7"/>
	<path class="st0" d="M126.3,318.8l-3.1-1.8l-1.2-0.7l-2.5-1.5l-1,1.7l0.9,1.9l-22.7,18.7l-1.9,3.2l6.2,3.7l2.3-3l3.7-2.2l5.5,3.2
		l5.5,3.2l-0.1,4.3l-1.5,3.5l6.2,3.7l1.9-3.2l6-32.3L126.3,318.8z M116,336.3l-3.5-2l9.4-8l-2.5,12.1L116,336.3z"/>
	<polygon class="st0" points="105.7,305.5 105.7,305.5 103.5,303.1 102,304.5 102.3,306.9 83.7,315 95.7,294.6 92,290.5 70.8,300.9 
		82.1,279.8 75.6,272.6 75.6,272.6 74.7,271.7 73.2,273.1 73.7,276.4 58.9,305.6 64.8,312 79.1,306.2 71.9,319.8 77.8,326.3 
		112.1,312.5 	"/>
</g>
</svg>
